<?xml version="1.0" encoding="utf-8"?>
<!-- Generator: Adobe Illustrator 26.0.2, SVG Export Plug-In . SVG Version: 6.00 Build 0)  -->
<svg version="1.1" id="Layer_1" xmlns="http://www.w3.org/2000/svg" xmlns:xlink="http://www.w3.org/1999/xlink" x="0px" y="0px"
	 viewBox="0 0 1840 599.3" style="enable-background:new 0 0 1840 599.3;" xml:space="preserve">
<style type="text/css">
	.st0{fill:#FFFFFF;}
	.st1{enable-background:new    ;}
	.st2{fill:none;stroke:#000000;stroke-width:5;}
</style>
<path d="M104.7,89.9c3.3,2,4.5,4.9,4.2,8.8c-0.2,2.4,0,4.9,0,7.9c9.1,0,17.9,0,26.8,0c2.4,0,4.7-0.1,7.1,0c4.2,0.1,6.9,2.6,6.9,6.2
	s-2.7,6.2-6.8,6.2c-9.4,0.1-18.8,0-28.2,0c-1.7,0-3.3,0-5.6,0c0,3.2,0.1,6.4,0,9.5c-0.1,4.8-2.4,7-7.2,7.1c-2.9,0.1-5.8,0-9.1,0
	c0,49.7,0,99.3,0,149.1c0.1,0.1,0.3,0.4,0.5,0.4c9.8,0.7,10.4,1.3,10.4,11.2c0,5,0,10,0,15c0,7.1-1.7,8.7-8.8,8.9
	c-0.7,0-1.3,0.1-2.2,0.2c0,49.7,0,99.2,0,149.4c3,0,6.2-0.1,9.3,0c4.8,0.1,7,2.4,7.1,7.2c0.1,2.9,0,5.8,0,9c49.7,0,99.3,0,149.1,0
	c0.1-0.1,0.4-0.3,0.4-0.5c0.7-9.9,1.1-10.3,11.2-10.3c5,0,10,0,15,0c7.1,0,8.7,1.6,8.9,8.8c0,0.7,0.1,1.3,0.2,2.4c1.7,0,3.2,0,4.6,0
	c27,0,54,0,81,0c1.2,0,2.5-0.1,3.7,0c3.5,0.3,6,3,6,6.3s-2.5,5.8-6.1,6.1c-1.1,0.1-2.2,0-3.3,0c-27,0-54,0-81,0c-1.5,0-3,0-4.4,0
	c-0.3,0.5-0.6,0.7-0.6,0.9c-0.6,9.7-1.4,10.4-11.2,10.4c-4.8,0-9.7,0-14.5,0c-7.5,0-9-1.6-9.3-8.9c0-0.7-0.1-1.3-0.2-2.2
	c-49.7,0-99.2,0-149,0c-1.7,5.4,2.3,12.5-4.6,16.4c-13.8,0-27.7,0-41.5,0c0-13.8,0-27.7,0-41.5c3.9-6.9,11-2.9,16.3-4.5
	c0-49.8,0-99.4,0-149c-0.8-0.1-1.4-0.1-1.9-0.1c-7.3-0.1-8.9-1.8-9-9.2c0-5,0-10,0-14.9c0-9.6,0.9-10.5,10.2-10.9
	c0.2,0,0.5-0.2,0.8-0.4c0-49.5,0-99.1,0-149c-2.7,0-5.2-0.2-7.6,0c-3.8,0.3-6.7-0.9-8.7-4.2c0-13.8,0-27.7,0-41.5
	C77,89.9,90.9,89.9,104.7,89.9z M75.9,102.5c0,7,0,13.6,0,20.3c7,0,13.6,0,20.3,0c0-6.9,0-13.5,0-20.3
	C89.4,102.5,82.8,102.5,75.9,102.5z M96.2,482.3c-7,0-13.7,0-20.3,0c0,7,0,13.7,0,20.3c6.9,0,13.5,0,20.3,0
	C96.2,495.8,96.2,489.2,96.2,482.3z M280.7,487.7c-3.4,0-6.4,0-9.5,0c0,3.3,0,6.3,0,9.4c3.4,0,6.4,0,9.5,0
	C280.7,493.8,280.7,491,280.7,487.7z M81.3,307.2c3.3,0,6.4,0,9.5,0c0-3.3,0-6.3,0-9.4c-3.3,0-6.4,0-9.5,0
	C81.3,301.2,81.3,304.1,81.3,307.2z"/>
<path d="M447,515.2c-3.3-2-4.5-4.9-4.2-8.7c0.2-2.4,0-4.9,0-7.9c-9,0-17.7,0-26.3,0c-1.5,0-3,0.1-4.6,0c-3.9-0.2-6.4-2.8-6.4-6.2
	c0-3.4,2.6-6.1,6.4-6.2c9.1-0.1,18.3,0,27.4,0c1,0,1.9,0,3.5,0c0-1.9,0-3.6,0-5.4c0-10.3,0.9-11.2,11.4-11.2c1.5,0,3,0,4.9,0
	c0-49.8,0-99.4,0-149c-0.1-0.1-0.3-0.4-0.5-0.4c-9.8-0.7-10.4-1.3-10.4-11.2c0-5,0-10,0-14.9c0-7.1,1.6-8.7,8.8-8.9
	c0.7,0,1.3-0.1,2.2-0.2c0-49.7,0-99.2,0-149.4c-3,0-6.2,0.1-9.3,0c-4.8-0.1-7-2.4-7.1-7.2c-0.1-2.9,0-5.8,0-9.1
	c-49.7,0-99.3,0-149.1,0c-0.1,0.1-0.3,0.3-0.4,0.5c-0.7,9.9-1.4,10.5-11.6,10.5c-4.8,0-9.7,0-14.5,0c-7.1,0-8.7-1.7-8.9-8.8
	c0-0.7-0.1-1.3-0.2-2.4c-1.6,0-3.1,0-4.6,0c-25.7,0-51.5,0-77.2,0c-1.4,0-2.8,0.1-4.1-0.1c-3.2-0.7-5.1-2.8-5.1-6.1
	c0-3.3,2-5.4,5.2-6c1.3-0.3,2.8-0.1,4.1-0.1c25.6,0,51.2,0,76.8,0c1.5,0,3,0,4.3,0c0.3-0.5,0.6-0.7,0.6-0.9
	c0.6-9.6,1.2-10.3,10.8-10.3c5,0,10,0,14.9,0c7.5,0,9,1.5,9.2,8.8c0,0.7,0.1,1.3,0.2,2.1c49.7,0,99.2,0,149,0
	c1.7-5.4-2.3-12.5,4.6-16.4c13.8,0,27.7,0,41.5,0c0,13.8,0,27.7,0,41.5c-4,6.8-11,2.9-16.3,4.5c0,49.8,0,99.4,0,149
	c0.8,0.1,1.4,0.1,1.9,0.1c7.3,0.1,8.9,1.8,9,9.2c0,5,0,10,0,14.9c0,9.6-0.9,10.5-10.2,10.9c-0.2,0-0.4,0.2-0.8,0.4
	c0,49.5,0,99.1,0,149c2.7,0,5.2,0.2,7.6,0c3.8-0.3,6.7,0.9,8.7,4.2c0,13.8,0,27.7,0,41.5C474.7,515.2,460.9,515.2,447,515.2z
	 M455.6,102.5c0,7,0,13.7,0,20.3c7,0,13.6,0,20.3,0c0-6.9,0-13.5,0-20.3C469.1,102.5,462.5,102.5,455.6,102.5z M475.9,482.3
	c-7.1,0-13.8,0-20.4,0c0,6.9,0,13.5,0,20.2c6.9,0,13.6,0,20.4,0C475.9,495.7,475.9,489.1,475.9,482.3z M271.1,108c0,3.3,0,6.3,0,9.5
	c3.3,0,6.4,0,9.6,0c0-3.2,0-6.2,0-9.5C277.5,108,274.5,108,271.1,108z M470.3,307.4c0-3.4,0-6.5,0-9.6c-3.3,0-6.3,0-9.3,0
	c0,3.3,0,6.4,0,9.6C464.3,307.4,467.1,307.4,470.3,307.4z"/>
<path d="M275.9,156.9c12.5,0,24.9,0,37.4,0c9.5,0,14.6,3.6,17.7,12.6c30.8,87.8,61.6,175.5,92.4,263.3c3.2,9.2-1.2,15.4-10.9,15.4
	c-22.6,0-45.1,0-67.7,0c-9.7,0-14.7-3.6-18.1-12.8c-5.3-14.3-10.6-28.5-15.7-42.8c-1-2.7-2.1-3.9-5.2-3.8c-19.9,0.2-39.9,0.1-59.8,0
	c-2.8,0-4.1,0.7-5.1,3.5c-5.1,14.3-10.5,28.5-15.8,42.8c-3.7,9.9-8.5,13.2-19.1,13.2c-22.2,0-44.3,0-66.5,0
	c-10.3,0-14.5-6-11.1-15.8c30.6-87.4,61.3-174.8,91.9-262.2c3.5-9.9,8.4-13.3,18.9-13.4C251.5,156.9,263.7,156.9,275.9,156.9z
	 M370.6,435.7c-0.6-1.8-1-3.1-1.4-4.4c-15.2-43.3-30.3-86.6-45.5-129.9c-4-11.5-8-23-12.1-34.4c-1.1-3.1-0.7-6.2,2.2-7.6
	c1.9-0.9,4.9-0.8,6.9,0.1c1.5,0.7,2.5,3.1,3.2,5c6.8,19,13.4,38.1,20.1,57.1c12.8,36.7,25.6,73.3,38.5,109.9c0.6,1.6,2.1,3.9,3.2,4
	c8.3,0.3,16.5,0.2,25.3,0.2c-0.6-2-1-3.6-1.5-5.1C388.7,371.4,368,312.2,347.2,253c-9.2-26.2-18.4-52.4-27.7-78.6
	c-0.7-1.9-2.4-4.6-3.8-4.7c-8.2-0.4-16.4-0.2-25-0.2c0.6,1.8,1,3,1.4,4.1c6.7,19.2,13.5,38.3,20.2,57.5c0.5,1.4,1,2.9,1.3,4.4
	c0.7,3.3-0.7,5.9-3.7,7c-3.2,1.2-6,0.2-7.8-2.9c-0.6-1.1-0.9-2.3-1.3-3.5c-7.2-20.5-14.4-40.9-21.5-61.4c-1.3-3.9-3.3-5.5-7.5-5.4
	c-10.7,0.3-21.3,0.3-32,0c-4.4-0.1-6.4,1.5-7.8,5.5c-29.9,85.4-59.8,170.8-89.8,256.3c-0.5,1.4-0.8,2.8-1.4,4.7
	c9.5,0,18.4,0.1,27.4-0.2c1.4,0,3.3-1.8,4.1-3.3c1.6-3.2,2.6-6.7,3.9-10c1.6-4,4.7-5.6,8.2-4.3c3.4,1.3,4.8,4.5,3.5,8.5
	c-1,3-2.1,5.9-3.3,9.3c7.8,0,15-0.2,22.1,0.1c3.7,0.1,5.5-1.4,6.7-4.8c4.6-12.9,9.5-25.7,14.2-38.5c0.4-1.1,0.6-2.2,1.1-3.7
	c-5.9,0-11.3,0-16.7,0c-9.7,0-9.7,0-13.4,8.7c-0.2,0.4-0.3,0.8-0.5,1.1c-1.7,3.2-4.9,4.5-8,3.3c-3-1.2-4.6-4.5-3.4-7.9
	c1.3-3.8,2.7-7.5,4.1-11.3c2.2-5.8,3.1-6.5,9.5-6.5c37,0,73.9,0,110.9,0c6.4,0,7.3,0.6,9.6,6.9c5.9,16,11.7,31.9,17.7,47.8
	c0.7,1.8,2.6,4.3,4.1,4.4C351.8,435.9,361,435.7,370.6,435.7z"/>
<path class="st0" d="M370.6,435.7c-9.6,0-18.8,0.2-28-0.2c-1.5-0.1-3.4-2.6-4.1-4.4c-6-15.9-11.8-31.9-17.7-47.8
	c-2.3-6.2-3.2-6.9-9.6-6.9c-37,0-73.9,0-110.9,0c-6.4,0-7.3,0.6-9.5,6.5c-1.4,3.8-2.9,7.5-4.1,11.3c-1.1,3.4,0.4,6.7,3.4,7.9
	c3.1,1.2,6.3-0.1,8-3.3c0.2-0.4,0.3-0.8,0.5-1.1c3.7-8.7,3.7-8.7,13.4-8.7c5.4,0,10.8,0,16.7,0c-0.4,1.5-0.7,2.6-1.1,3.7
	c-4.7,12.8-9.6,25.6-14.2,38.5c-1.2,3.3-3,4.9-6.7,4.8c-7.2-0.2-14.4-0.1-22.1-0.1c1.2-3.4,2.3-6.3,3.3-9.3c1.3-4-0.1-7.2-3.5-8.5
	c-3.5-1.3-6.5,0.3-8.2,4.3c-1.3,3.3-2.3,6.9-3.9,10c-0.7,1.5-2.7,3.2-4.1,3.3c-9,0.3-17.9,0.2-27.4,0.2c0.5-1.9,0.9-3.3,1.4-4.7
	c29.9-85.4,59.9-170.8,89.8-256.3c1.4-4,3.4-5.6,7.8-5.5c10.7,0.3,21.3,0.3,32,0c4.2-0.1,6.2,1.5,7.5,5.4
	c7.1,20.5,14.3,41,21.5,61.4c0.4,1.2,0.7,2.4,1.3,3.5c1.7,3.2,4.6,4.1,7.8,2.9c3.1-1.1,4.4-3.7,3.7-7c-0.3-1.5-0.8-2.9-1.3-4.4
	c-6.7-19.2-13.5-38.3-20.2-57.5c-0.4-1.2-0.8-2.3-1.4-4.1c8.6,0,16.8-0.2,25,0.2c1.4,0.1,3.1,2.8,3.8,4.7
	c9.3,26.2,18.5,52.4,27.7,78.6c20.8,59.2,41.5,118.4,62.3,177.6c0.5,1.5,0.9,3.1,1.5,5.1c-8.8,0-17,0.2-25.3-0.2
	c-1.1,0-2.6-2.4-3.2-4c-12.9-36.6-25.7-73.3-38.5-109.9c-6.7-19-13.3-38.1-20.1-57.1c-0.7-1.9-1.7-4.3-3.2-5c-2-0.9-4.9-1-6.9-0.1
	c-3,1.4-3.3,4.5-2.2,7.6c4,11.5,8.1,22.9,12.1,34.4c15.2,43.3,30.4,86.6,45.5,129.9C369.6,432.6,370,433.9,370.6,435.7z
	 M255.5,347.3c14.3,0,28.5,0,42.8,0c7.4,0,9.8-3.4,7.4-10.4c-14.4-41.2-28.9-82.4-43.3-123.6c-1.2-3.3-2.6-6.3-6.7-6.2
	c-4.1,0-5.5,3-6.6,6.3c-14.3,41.1-28.6,82.2-43,123.3c-2.5,7.2-0.1,10.6,7.5,10.6C227.5,347.3,241.5,347.3,255.5,347.3z"/>
<path d="M255.5,347.3c-14,0-28,0-41.9,0c-7.6,0-10-3.4-7.5-10.6c14.3-41.1,28.7-82.2,43-123.3c1.2-3.3,2.5-6.3,6.6-6.3
	s5.5,2.9,6.7,6.2c14.4,41.2,28.9,82.4,43.3,123.6c2.4,7,0,10.4-7.4,10.4C284,347.3,269.7,347.3,255.5,347.3z M219.9,334.8
	c8.3,0,16-0.1,23.7,0.1c2.7,0.1,3.9-0.8,4.7-3.3c6.6-19.3,13.4-38.6,20-57.9c0.6-1.6,0.5-3.8-0.1-5.5c-3.6-10.6-7.3-21.1-11.1-31.7
	c-0.4-1.1-0.9-2.2-1.7-4C243.5,266.9,231.8,300.6,219.9,334.8z M260.4,334.6c10.7,0,20.7,0,31.2,0c-5.1-14.6-10.2-29-15.3-43.4
	c-0.3,0.1-0.6,0.1-0.9,0.2C270.5,305.7,265.5,319.9,260.4,334.6z"/>
<path class="st0" d="M219.9,334.8c11.9-34.3,23.7-68,35.7-102.4c0.7,1.8,1.3,2.8,1.7,4c3.7,10.5,7.5,21.1,11.1,31.7
	c0.6,1.7,0.6,3.8,0.1,5.5c-6.6,19.3-13.4,38.6-20,57.9c-0.9,2.5-2,3.4-4.7,3.3C235.9,334.7,228.2,334.8,219.9,334.8z"/>
<g class="st1">
	<path class="st2" d="M707.7,443.9h-44.1l-7.6-50.5h-53.7l-7.6,50.5h-40.2l44.5-278.4h64L707.7,443.9z M607.9,355.6H650L629,214.9
		L607.9,355.6z"/>
	<path class="st2" d="M769.8,165.5v214.8c0,19.9,8.8,27,22.7,27c13.9,0,22.7-7.2,22.7-27V165.5h41.4v212c0,44.5-22.3,70-65.2,70
		s-65.2-25.5-65.2-70v-212H769.8z"/>
	<path class="st2" d="M874.4,165.5h135.2v39.8h-45.7v238.6h-43.8V205.3h-45.7V165.5z"/>
	<path class="st2" d="M1025.9,232.4c0-44.5,23.5-70,66.4-70c43,0,66.4,25.5,66.4,70v144.8c0,44.5-23.5,70-66.4,70
		c-43,0-66.4-25.5-66.4-70V232.4z M1069.6,379.9c0,19.9,8.8,27.4,22.7,27.4s22.7-7.6,22.7-27.4V229.6c0-19.9-8.8-27.4-22.7-27.4
		s-22.7,7.6-22.7,27.4V379.9z"/>
</g>
<g class="st1">
	<path d="M1187,165.5h43.8v238.6h72v39.8H1187V165.5z"/>
	<path d="M1319.1,232.4c0-44.5,23.5-70,66.4-70s66.4,25.5,66.4,70v144.8c0,44.5-23.5,70-66.4,70s-66.4-25.5-66.4-70V232.4z
		 M1362.8,379.9c0,19.9,8.8,27.4,22.7,27.4s22.7-7.6,22.7-27.4V229.6c0-19.9-8.8-27.4-22.7-27.4s-22.7,7.6-22.7,27.4V379.9z"/>
	<path d="M1545.8,288.8h61.3v88.3c0,44.5-22.3,70-65.2,70c-43,0-65.2-25.5-65.2-70V232.4c0-44.5,22.3-70,65.2-70
		c43,0,65.2,25.5,65.2,70v27h-41.4v-29.8c0-19.9-8.8-27.4-22.7-27.4s-22.7,7.6-22.7,27.4v150.3c0,19.9,8.8,27,22.7,27
		s22.7-7.2,22.7-27v-51.3h-19.9V288.8z"/>
	<path d="M1631.7,232.4c0-44.5,23.5-70,66.4-70c43,0,66.4,25.5,66.4,70v144.8c0,44.5-23.5,70-66.4,70c-43,0-66.4-25.5-66.4-70V232.4
		z M1675.4,379.9c0,19.9,8.8,27.4,22.7,27.4s22.7-7.6,22.7-27.4V229.6c0-19.9-8.8-27.4-22.7-27.4s-22.7,7.6-22.7,27.4V379.9z"/>
</g>
</svg>
