<?xml version="1.0" encoding="utf-8"?>
<!-- Generator: Adobe Illustrator 26.0.2, SVG Export Plug-In . SVG Version: 6.00 Build 0)  -->
<svg version="1.1" id="Layer_1" xmlns="http://www.w3.org/2000/svg" xmlns:xlink="http://www.w3.org/1999/xlink" x="0px" y="0px"
	 viewBox="0 0 420 418" style="enable-background:new 0 0 420 418;" xml:space="preserve">
<style type="text/css">
	.st0{fill:none;}
</style>
<path d="M203,12c8,0,16,0,24,0c1,0.2,1.9,0.5,2.9,0.6c36.4,2.8,69.4,15,98.6,36.7c41,30.6,66.4,71.1,75.6,121.6c1.3,7,2,14,2.9,21.1
	c0,8,0,16,0,24c-0.6,4.6-1,9.1-1.7,13.7c-5.5,38.6-21,72.7-47,101.8c-29.5,33-66.2,53.6-109.9,61.5c-7.1,1.3-14.3,2-21.4,3
	c-8,0-16,0-24,0c-4.7-0.6-9.4-1.1-14.1-1.7c-38.5-5.5-72.4-21-101.4-46.9c-33-29.6-53.7-66.2-61.6-109.9c-1.3-7.1-2-14.3-3-21.5
	c0-8,0-16,0-24c0.8-6.4,1.5-12.9,2.6-19.2c6.8-39.9,24.3-74.5,52.8-103.3C107,40.3,141.6,22,181.9,14.9C188.9,13.7,196,13,203,12z
	 M389,204.2c0.1-95.7-77.9-174-173.7-174.2c-96-0.2-174.2,77.9-174.3,173.8c-0.1,95.8,77.9,173.9,173.6,174.2
	C310.6,378.2,388.9,300.1,389,204.2z"/>
<path class="st0" d="M389,204.2c-0.1,96-78.4,174.1-174.3,173.8C118.9,377.8,40.9,299.6,41,203.8c0.1-95.9,78.4-174,174.3-173.8
	C311.1,30.2,389.1,108.4,389,204.2z M274,316.1c1.4-0.1,3.9,0,6.4-0.4c15.6-2.2,28.2-9,35-24.1c3.4-7.5,6.6-15.1,9.6-22.7
	c4.9-12.4,1-23.7-10.6-30.5c-11-6.4-22-12.8-33.1-19.1c-12.6-7.2-25.3-4.2-33.2,7.9c-0.6,0.9-1.2,1.9-1.9,2.8
	c-4.8,6.1-12.8,7.6-19,2.9c-15.7-11.8-29.5-25.5-41.2-41.2c-4.6-6.2-3.1-14.2,3.1-19c1.2-0.9,2.5-1.7,3.7-2.5
	c10.5-7.1,13.9-20,7.7-31c-6.7-12.1-13.7-24.1-20.8-36c-5.9-9.9-17.2-13.9-28-9.8c-8.2,3.1-16.2,6.6-24.2,10.1
	c-15.5,6.9-22.6,19.8-24.3,36c-1.7,16,2.3,31.2,9.3,45.3c25.3,51.7,64.1,90.6,114.3,118.1C241.1,310.7,256.4,315.8,274,316.1z"/>
<path d="M274,316.1c-17.6-0.3-32.9-5.4-47.1-13.2c-50.2-27.6-89-66.5-114.3-118.1c-6.9-14.2-11-29.3-9.3-45.3
	c1.7-16.2,8.8-29.1,24.3-36c8-3.5,16-7,24.2-10.1c10.7-4,22-0.1,28,9.8c7.1,11.9,14.1,23.9,20.8,36c6.1,11,2.8,23.9-7.7,31
	c-1.2,0.8-2.5,1.6-3.7,2.5c-6.2,4.8-7.7,12.7-3.1,19c11.7,15.7,25.5,29.5,41.2,41.2c6.2,4.7,14.2,3.2,19-2.9
	c0.7-0.9,1.3-1.8,1.9-2.8c8-12.1,20.6-15.2,33.2-7.9c11.1,6.3,22.1,12.7,33.1,19.1c11.6,6.8,15.5,18.1,10.6,30.5
	c-3,7.6-6.3,15.2-9.6,22.7c-6.8,15.1-19.4,21.9-35,24.1C277.9,316,275.4,316,274,316.1z M270.3,298c16.5,0.4,24.8-4.7,30.5-17.8
	c2.6-5.8,4.9-11.7,7.3-17.6c1.8-4.6,1.1-6.5-3.2-8.9c-10.4-6-20.8-12-31.1-18c-6.2-3.6-7.5-3.2-11.5,2.8c-11,16.5-31.4,20.1-47.1,8
	c-16.1-12.4-30.4-26.7-42.8-42.8c-4.2-5.4-6.6-11.4-6.9-18.3c-0.4-12.9,5.4-22.5,16.1-29.4c4.5-2.9,5-5,2.4-9.6
	c-6.2-10.8-12.5-21.6-18.7-32.4c-2.4-4.1-4.4-4.9-8.7-3.1c-6.8,2.7-13.6,5.7-20.4,8.5c-9.9,4-14,11.9-15,21.9
	c-1.4,13.1,2.4,25.4,8,36.9c23.3,47.1,58.8,82.7,104.5,108.3C245.6,293,258.4,297.6,270.3,298z"/>
<path class="st0" d="M270.3,298c-11.9-0.5-24.7-5.1-36.6-11.8c-45.6-25.6-81.2-61.1-104.5-108.3c-5.7-11.5-9.4-23.7-8-36.9
	c1-9.9,5.1-17.9,15-21.9c6.8-2.7,13.6-5.7,20.4-8.5c4.3-1.7,6.3-1,8.7,3.1c6.3,10.8,12.5,21.6,18.7,32.4c2.7,4.6,2.1,6.7-2.4,9.6
	c-10.7,6.9-16.5,16.4-16.1,29.4c0.2,6.8,2.7,12.9,6.9,18.3c12.5,16.1,26.7,30.4,42.8,42.8c15.7,12,36,8.5,47.1-8
	c4-6,5.3-6.3,11.5-2.8c10.4,6,20.8,12,31.1,18c4.3,2.5,5,4.4,3.2,8.9c-2.3,5.9-4.7,11.8-7.3,17.6C295.1,293.3,286.8,298.4,270.3,298
	z"/>
</svg>
