<?xml version="1.0" encoding="utf-8"?>
<!-- Generator: Adobe Illustrator 26.0.2, SVG Export Plug-In . SVG Version: 6.00 Build 0)  -->
<svg version="1.1" id="Layer_1" xmlns="http://www.w3.org/2000/svg" xmlns:xlink="http://www.w3.org/1999/xlink" x="0px" y="0px"
	 viewBox="0 0 449 412" style="enable-background:new 0 0 449 412;" xml:space="preserve">
<style type="text/css">
	.st0{fill:#FFFFFF;}
</style>
<path class="st0" d="M20,209.2c1.8-7.5,4.5-14.4,10.5-19.7c13.9-12.4,32.6-11.5,46.5,2.4c28.9,28.8,57.8,57.8,86.6,86.7
	c1.1,1.1,1.9,2.5,3.4,4.5c1.7-2.2,2.6-3.5,3.7-4.6c67-67,134-134,200.9-201c10-10,21.6-13.7,35.3-9.4c20.4,6.4,28.6,33.4,15.2,50.1
	c-1.6,2-3.2,3.9-5,5.7c-75,75-150,150-224.9,225c-10.1,10.1-21.8,14.4-35.5,9.5c-4.9-1.8-9.8-5-13.5-8.7
	c-37.6-37.3-75-74.8-112.5-112.2c-5.7-5.6-8.9-12.4-10.6-20.1C20,214.5,20,211.9,20,209.2z"/>
</svg>
