<?xml version="1.0" encoding="utf-8"?>
<!-- Generator: Adobe Illustrator 26.0.2, SVG Export Plug-In . SVG Version: 6.00 Build 0)  -->
<svg version="1.1" id="Layer_1" xmlns="http://www.w3.org/2000/svg" xmlns:xlink="http://www.w3.org/1999/xlink" x="0px" y="0px"
	 viewBox="0 0 443 429" style="enable-background:new 0 0 443 429;" xml:space="preserve">
<style type="text/css">
	.st0{fill:#FFFFFF;}
</style>
<path d="M231.4,417.6c-8,0-16,0-24,0c-5.4-0.6-10.8-1.2-16.2-2c-40.3-5.7-76-21.8-106.5-48.7c-35.9-31.7-58.4-71.2-66.7-118.6
	c-1.3-7.7-2.1-15.5-3.1-23.2c0-8,0-16,0-24c0.2-1.3,0.6-2.5,0.7-3.8c1.2-18.4,5.1-36.3,11.4-53.6c35.7-98.5,139.6-154,241.4-129.1
	c105.1,25.7,172.4,130.8,151.8,236.9c-7.9,40.7-26.3,75.9-55.5,105.3c-30.6,30.8-67.3,50.3-110.1,57.6
	C247,415.8,239.2,416.6,231.4,417.6z M355.8,330.6c56.8-63,65-175.5-13.6-249.6C267.4,10.4,145.9,18.3,80.4,98.4
	c-65.9,80.5-44,182.6,2.8,232c13.2-46.7,42.7-78.9,87.7-97.2c-47.4-34-46.3-95-15.5-128.6c31.9-34.9,85.7-38.4,120.3-7.6
	c18.8,16.7,29.1,37.6,29.6,62.7c0.6,30.7-12.5,55-37.3,73.5C313.2,251.4,342.3,283.8,355.8,330.6z M222.7,393.7
	c4.3-0.4,12-0.7,19.7-1.7c30.7-3.8,58.5-15,83.5-33.3c10.1-7.4,9.9-7.6,6.9-20.1c-14.5-60.3-72-98.3-133-88.1
	c-49.6,8.3-89,49-95.6,98.9c-0.2,1.2,0.7,3,1.7,3.8C139,379.8,176.9,393.1,222.7,393.7z M219.4,223.9c34.1,0,61.9-27.6,62.2-61.8
	c0.3-34-27.9-62.3-62.1-62.3c-34.2,0-62.4,28.2-62.2,62.2C157.5,196.2,185.3,223.9,219.4,223.9z"/>
<path class="st0" d="M355.8,330.6c-13.5-46.9-42.5-79.2-87.8-97.6c24.8-18.4,37.9-42.8,37.3-73.5c-0.5-25.1-10.9-46-29.6-62.7
	c-34.6-30.8-88.4-27.2-120.3,7.6c-30.7,33.6-31.8,94.6,15.5,128.6c-45,18.3-74.5,50.5-87.7,97.2c-46.9-49.4-68.7-151.5-2.8-232
	c65.6-80.1,187-87.9,261.9-17.3C420.8,155.1,412.6,267.7,355.8,330.6z"/>
<path class="st0" d="M222.7,393.7c-45.8-0.6-83.7-13.9-116.8-40.5c-1-0.8-1.9-2.6-1.7-3.8c6.6-49.8,46-90.5,95.6-98.9
	c61.1-10.3,118.5,27.8,133,88.1c3,12.5,3.1,12.7-6.9,20.1c-24.9,18.3-52.7,29.5-83.5,33.3C234.8,392.9,227.1,393.3,222.7,393.7z"/>
<path class="st0" d="M219.4,223.9c-34.1,0-61.9-27.7-62.1-61.8c-0.2-34,28-62.3,62.2-62.2c34.2,0,62.4,28.3,62.1,62.3
	C281.3,196.3,253.5,223.9,219.4,223.9z"/>
</svg>
